<svg viewBox="36 653.3 316.1 76.9" xmlns="http://www.w3.org/2000/svg"><g fill="#fff"><path d="m75.4 660.3h-16.4v50.8h-6.7v-50.8h-16.3v-6h39.4z"/><path d="m106.3 670.5-18.7 47.1c-3.3 8.4-8 12.6-14 12.6-1.7 0-3.1-.2-4.2-.5v-5.8c1.4.5 2.7.7 3.8.7 3.3 0 5.7-2 7.4-5.9l3.2-7.7-15.8-40.5h7.2l11 31.2c.1.4.4 1.4.8 3.1h.2c.1-.6.4-1.6.8-3l11.5-31.3zm10.6 34.7h-.2v24.5h-6.5v-59.2h6.5v7.1h.2c3.2-5.4 7.9-8.1 14-8.1 5.2 0 9.3 1.8 12.2 5.4s4.4 8.5 4.4 14.6c0 6.8-1.7 12.2-5 16.3s-7.8 6.1-13.5 6.1c-5.1.2-9.2-2.1-12.1-6.7zm-.1-16.3v5.7c0 3.4 1.1 6.2 3.3 8.5s4.9 3.5 8.3 3.5c3.9 0 7-1.5 9.3-4.5 2.2-3 3.3-7.2 3.3-12.6 0-4.5-1-8.1-3.1-10.6-2.1-2.6-4.9-3.8-8.5-3.8-3.8 0-6.8 1.3-9.1 3.9-2.4 2.6-3.5 5.9-3.5 9.9zm70.5 3.5h-28.6c.1 4.5 1.3 8 3.6 10.5s5.5 3.7 9.6 3.7c4.6 0 8.8-1.5 12.6-4.5v6.1c-3.6 2.6-8.3 3.9-14.1 3.9-5.7 0-10.2-1.8-13.5-5.5s-4.9-8.9-4.9-15.5c0-6.3 1.8-11.5 5.4-15.4 3.6-4 8-6 13.3-6s9.4 1.7 12.3 5.2c2.9 3.4 4.4 8.2 4.4 14.3zm-6.7-5.5c0-3.8-.9-6.7-2.7-8.8s-4.3-3.1-7.4-3.1-5.7 1.1-7.8 3.3-3.5 5.1-4 8.6zm9.9 22.2v-4.5c4.1 2.6 8.2 3.9 12.4 3.9 4.4 0 7.8-.9 10.1-2.8s3.4-4.4 3.4-7.7c0-2.9-.8-5.2-2.3-7-1.5-1.7-4.9-4.1-10-7.1-5.8-3.4-9.4-6.2-10.9-8.4-1.5-2.3-2.3-4.9-2.3-7.8 0-4 1.6-7.4 4.7-10.2s7.3-4.2 12.5-4.2c3.4 0 6.8.6 10.1 1.7v4.1c-3.3-1.5-6.9-2.3-10.7-2.3-3.9 0-6.9 1-9.2 2.9-2.3 2-3.4 4.4-3.4 7.4 0 2.9.8 5.2 2.3 6.9s4.9 4.1 10 7c5.3 3 8.8 5.7 10.6 8s2.6 5 2.6 8.1c0 4.4-1.5 7.9-4.5 10.7s-7.3 4.1-12.8 4.1c-2 0-4.2-.3-6.8-.9s-4.5-1.1-5.8-1.9zm63.7.2c-3 1.8-6.6 2.8-10.8 2.8-5.5 0-10-1.9-13.4-5.7s-5.1-8.7-5.1-14.9c0-6.4 1.9-11.7 5.7-15.8s8.7-6.2 14.7-6.2c3.1 0 6.1.6 9 1.9v4.1c-2.9-1.8-6.1-2.7-9.5-2.7-4.8 0-8.6 1.7-11.6 5.1s-4.4 7.9-4.4 13.3c0 5.3 1.4 9.5 4.1 12.7s6.3 4.8 10.7 4.8c4.1 0 7.6-1.1 10.6-3.2zm24.2-35c-1.2-.9-2.6-1.3-4.3-1.3-3.2 0-5.9 1.7-8 5-2.2 3.3-3.2 8-3.2 14.1v19.1h-3.6v-40.7h3.6v9h.2c.9-3.1 2.4-5.5 4.4-7.2s4.3-2.6 7-2.6c1.5 0 2.9.2 4 .7v3.9zm5.8-14c-.8 0-1.5-.3-2.1-.9s-.9-1.3-.9-2.2.3-1.6.9-2.1 1.3-.8 2.1-.8 1.5.3 2.2.8c.6.5.9 1.2.9 2.1 0 .8-.3 1.6-.9 2.2-.7.6-1.4.9-2.2.9zm-1.8 50.8v-40.6h3.6v40.6zm16.1-7.2h-.2v25.9h-3.6v-59.3h3.6v8.4h.2c1.5-3 3.5-5.3 6.2-6.9s5.7-2.4 8.9-2.4c5.2 0 9.2 1.8 12.1 5.3 2.9 3.6 4.3 8.4 4.3 14.5 0 6.8-1.7 12.3-5 16.5s-7.7 6.3-13.1 6.3c-6-.1-10.5-2.8-13.4-8.3zm-.2-15.1v5.1c0 4.1 1.3 7.6 3.8 10.5 2.6 2.9 5.9 4.4 10.1 4.4 4.1 0 7.5-1.8 10.1-5.3 2.6-3.6 3.9-8.2 3.9-14 0-5.1-1.2-9.1-3.6-12.1s-5.5-4.5-9.5-4.5c-4.7 0-8.4 1.6-11 4.8s-3.8 6.8-3.8 11.1zm53.8 21.7c-1.9.9-3.7 1.3-5.3 1.3-6 0-9-3.6-9-10.8v-27.1h-7.3v-3.3h7.3v-10.6l1.8-.6 1.8-.6v11.8h10.7v3.3h-10.7v26.8c0 2.8.4 4.8 1.3 6.1s2.4 1.9 4.5 1.9c1.5 0 3.1-.5 4.9-1.5z"/></g></svg>